<svg xmlns="http://www.w3.org/2000/svg" viewBox="0 0 1600 1000">
  <defs>
    <linearGradient id="g" x1="0" y1="1" x2="1" y2="0">
      <stop offset="0" stop-color="#061018"/>
      <stop offset="0.5" stop-color="#0e3a4a"/>
      <stop offset="1" stop-color="#3b1d4a"/>
    </linearGradient>
    <radialGradient id="c" cx="30%" cy="60%" r="42%">
      <stop offset="0" stop-color="#fde68a"/>
      <stop offset="0.4" stop-color="#22d3ee" stop-opacity="0.7"/>
      <stop offset="1" stop-color="#22d3ee" stop-opacity="0"/>
    </radialGradient>
    <filter id="n" x="-20%" y="-20%" width="140%" height="140%">
      <feTurbulence type="fractalNoise" baseFrequency="0.8" numOctaves="2" stitchTiles="stitch"/>
      <feColorMatrix values="0 0 0 0 1  0 0 0 0 1  0 0 0 0 1  0 0 0 0.5 0"/>
    </filter>
  </defs>
  <rect width="1600" height="1000" fill="url(#g)"/>
  <circle cx="480" cy="620" r="380" fill="url(#c)"/>
  <g fill="none" stroke-linecap="round">
    <path d="M180 720h1240" stroke="#67e8f9" stroke-width="2" opacity="0.45"/>
    <path d="M220 250c180 80 260 220 420 220s250-160 460-80 280 40 360-40" stroke="#fde68a" stroke-width="4"/>
    <path d="M260 430c160-40 240 60 400 40s220-120 420-40 240 80 320 20" stroke="#a5f3fc" stroke-width="3" opacity="0.85"/>
    <circle cx="420" cy="430" r="16" stroke="#fff" stroke-width="4"/>
    <circle cx="860" cy="390" r="16" stroke="#67e8f9" stroke-width="4"/>
    <circle cx="1240" cy="350" r="16" stroke="#fde68a" stroke-width="4"/>
  </g>
  <g fill="#ecfeff">
    <circle cx="140" cy="160" r="6"/><circle cx="220" cy="210" r="3"/><circle cx="1480" cy="180" r="5"/>
  </g>
  <rect width="1600" height="1000" filter="url(#n)" opacity="0.18"/>
</svg>
